Coordinates
version=1
nRows=13
nColumns=40
inDegrees=yes

Units are S.I. units (second, meters, Newtons, ...)
If the header above contains a line with 'inDegrees', this indicates whether rotational values are in degrees (yes) or radians (no).

endheader
time	pelvis_tilt	pelvis_list	pelvis_rotation	pelvis_tx	pelvis_ty	pelvis_tz	hip_flexion_r	hip_adduction_r	hip_rotation_r	knee_angle_r	knee_angle_r_beta	ankle_angle_r	subtalar_angle_r	mtp_angle_r	hip_flexion_l	hip_adduction_l	hip_rotation_l	knee_angle_l	knee_angle_l_beta	ankle_angle_l	subtalar_angle_l	mtp_angle_l	lumbar_extension	lumbar_bending	lumbar_rotation	arm_flex_r	arm_add_r	arm_rot_r	elbow_flex_r	pro_sup_r	wrist_flex_r	wrist_dev_r	arm_flex_l	arm_add_l	arm_rot_l	elbow_flex_l	pro_sup_l	wrist_flex_l	wrist_dev_l
      3.32500000	     -9.73937194	      3.95682875	      4.84103779	     -0.40297776	      0.91933377	     -0.72316528	     38.35874380	     -3.40297429	     -9.54532287	     47.17533244	      0.82336488	      4.62946440	      0.00000000	      0.00000000	     57.39050564	      0.94085547	     -5.66026580	     23.47419236	      0.40970195	    -20.91729982	      0.00000000	      0.00000000	     -9.06363238	     -1.98061809	     -4.17653019	     89.93299051	     -4.85165199	     24.42241879	     38.22299484	     82.67467520	      0.00000000	      0.00000000	     89.92257465	    -11.81800856	     22.12858643	     39.61890730	     84.43362674	      0.00000000	      0.00000000
      3.33000000	     -9.83207288	      3.98770759	      4.85967483	     -0.40343674	      0.91841838	     -0.72313941	     38.62063434	     -3.47666418	     -9.53931902	     47.44864877	      0.82813515	      4.76705776	      0.00000000	      0.00000000	     57.58911417	      0.92795946	     -5.66611744	     23.54647316	      0.41096348	    -20.99352567	      0.00000000	      0.00000000	     -9.02758431	     -1.99523618	     -4.21841423	     89.93438639	     -4.76001798	     24.27157179	     38.29177418	     82.60572680	      0.00000000	      0.00000000	     89.92293998	    -11.85338060	     22.07248908	     39.64947732	     84.35990208	      0.00000000	      0.00000000
      3.33500000	     -9.87535235	      4.02982464	      4.84845584	     -0.40392199	      0.91753224	     -0.72311991	     38.84132672	     -3.55015247	     -9.51647208	     47.74151438	      0.83324662	      4.87858047	      0.00000000	      0.00000000	     57.72795937	      0.90353368	     -5.70236010	     23.57886970	      0.41152891	    -21.11366256	      0.00000000	      0.00000000	     -9.07479640	     -2.00289909	     -4.22165276	     89.93438270	     -4.71132396	     24.03484183	     38.51944508	     82.86421944	      0.00000000	      0.00000000	     89.92351502	    -11.83113868	     21.79926122	     39.69804759	     84.31434537	      0.00000000	      0.00000000
      3.34000000	     -9.91322019	      4.03557570	      4.84400192	     -0.40437452	      0.91667427	     -0.72300774	     39.04401898	     -3.58135800	     -9.51186901	     48.00848723	      0.83790617	      4.97359755	      0.00000000	      0.00000000	     57.89618122	      0.83692663	     -5.80062721	     23.65136413	      0.41279418	    -21.23501117	      0.00000000	      0.00000000	     -9.10784501	     -1.97301718	     -4.13936321	     89.93524899	     -4.78393479	     24.08410371	     38.70636572	     82.72701841	      0.00000000	      0.00000000	     89.92389341	    -11.78607441	     21.93711425	     39.89719950	     83.79246113	      0.00000000	      0.00000000
      3.34500000	    -10.00053652	      4.07659022	      4.85620746	     -0.40482709	      0.91575034	     -0.72303293	     39.30307853	     -3.67492288	     -9.50971375	     48.29087687	      0.84283480	      5.07875864	      0.00000000	      0.00000000	     58.01033779	      0.87028554	     -5.61008919	     23.54433614	      0.41092619	    -21.39683237	      0.00000000	      0.00000000	     -9.09037987	     -1.99140688	     -4.18040946	     89.93633214	     -4.76983276	     24.77186160	     38.91283418	     78.47860502	      0.00000000	      0.00000000	     89.92480878	    -11.91604288	     22.37958799	     39.96680368	     79.58889895	      0.00000000	      0.00000000
      3.35000000	    -10.02980473	      4.05630687	      4.81446468	     -0.40515166	      0.91483602	     -0.72287819	     39.49242639	     -3.64480064	     -9.48125599	     48.55014679	      0.84735991	      5.22421101	      0.00000000	      0.00000000	     58.14333140	      0.76339657	     -5.61160509	     23.56091981	      0.41121563	    -21.36875469	      0.00000000	      0.00000000	     -9.13873459	     -1.93140369	     -4.14757491	     89.93641666	     -4.56948218	     23.70690799	     38.86237084	     82.72481507	      0.00000000	      0.00000000	     89.92474312	    -11.85578725	     21.44457580	     39.87732769	     84.19954005	      0.00000000	      0.00000000
      3.35500000	    -10.22717111	      4.14217152	      4.89146063	     -0.40582845	      0.91379059	     -0.72295948	     39.89348444	     -3.80610137	     -9.46243510	     48.86128675	      0.85279033	      5.29704226	      0.00000000	      0.00000000	     58.64979926	      0.80032666	     -5.32943227	     24.17130776	      0.42186890	    -21.71592629	      0.00000000	      0.00000000	     -9.02058101	     -1.99730381	     -4.20738229	     89.93702805	     -4.51199336	     23.56706607	     38.96943879	     82.66641629	      0.00000000	      0.00000000	     89.92526442	    -11.96641157	     21.38887444	     39.94395262	     84.19179839	      0.00000000	      0.00000000
      3.36000000	    -10.15566619	      4.14235045	      4.80955595	     -0.40595914	      0.91293921	     -0.72280604	     39.96755074	     -3.78500492	     -9.43979793	     49.13410694	      0.85755194	      5.45279127	      0.00000000	      0.00000000	     58.45389151	      0.73706965	     -5.62793443	     23.59445042	      0.41180084	    -21.53185339	      0.00000000	      0.00000000	     -9.15055335	     -1.96373212	     -4.10357255	     89.93762679	     -4.48688459	     23.42629318	     39.10368023	     82.75419720	      0.00000000	      0.00000000	     89.92563746	    -11.90901552	     21.18500221	     39.93797011	     84.29822237	      0.00000000	      0.00000000
      3.36500000	    -10.37203759	      4.16067751	      4.87857172	     -0.40661590	      0.91192123	     -0.72281045	     40.36663465	     -3.86235619	     -9.43552719	     49.38116669	      0.86186395	      5.51033372	      0.00000000	      0.00000000	     59.01484214	      0.70401646	     -5.34378748	     24.29290735	      0.42399122	    -21.89340409	      0.00000000	      0.00000000	     -9.01733267	     -1.94399682	     -4.14595125	     89.93817243	     -4.41921700	     23.27377803	     39.21108074	     82.72387882	      0.00000000	      0.00000000	     89.92568708	    -11.95219603	     21.06154491	     39.99501397	     84.34435927	      0.00000000	      0.00000000
      3.37000000	    -10.44055833	      4.20354355	      4.87023177	     -0.40701143	      0.91096874	     -0.72274066	     40.59577738	     -3.91662126	     -9.40424768	     49.64400875	      0.86645141	      5.62338857	      0.00000000	      0.00000000	     59.18499888	      0.68030089	     -5.33264182	     24.33797818	      0.42477785	    -21.98905288	      0.00000000	      0.00000000	     -9.03544087	     -1.96584851	     -4.16143327	     89.93852925	     -4.34269539	     23.14710018	     39.33601704	     82.53439654	      0.00000000	      0.00000000	     89.92625614	    -11.96648889	     20.84816590	     40.04219912	     84.34335791	      0.00000000	      0.00000000
      3.37500000	    -10.51389710	      4.19723795	      4.86683418	     -0.40742160	      0.90996189	     -0.72269108	     40.85905017	     -3.94732034	     -9.44265513	     49.96693639	      0.87208756	      5.74543163	      0.00000000	      0.00000000	     59.38275973	      0.62226442	     -5.37792880	     24.39823820	      0.42582959	    -22.04783789	      0.00000000	      0.00000000	     -9.02270481	     -1.92123221	     -4.15799114	     89.93900574	     -4.27536386	     23.00919776	     39.45602330	     82.53982450	      0.00000000	      0.00000000	     89.92635888	    -11.96337002	     20.75506176	     40.07984449	     84.14565195	      0.00000000	      0.00000000
      3.38000000	    -10.60233111	      4.25129874	      4.85980098	     -0.40784466	      0.90896102	     -0.72261869	     41.11074307	     -3.98881891	     -9.33111829	     50.21768486	      0.87646394	      5.85307382	      0.00000000	      0.00000000	     59.59619668	      0.60325612	     -5.41201258	     24.48856381	      0.42740607	    -22.12354517	      0.00000000	      0.00000000	     -9.00367304	     -1.96789477	     -4.17445692	     89.93929127	     -4.19997729	     22.98985200	     39.54476435	     82.10172927	      0.00000000	      0.00000000	     89.92731398	    -12.09682376	     20.89019190	     40.21807123	     83.87461894	      0.00000000	      0.00000000
      3.38500000	    -10.67823768	      4.32013657	      4.90211473	     -0.40827393	      0.90803334	     -0.72265440	     41.35268948	     -4.10034341	     -9.30428300	     50.48732876	      0.88117012	      5.97813716	      0.00000000	      0.00000000	     59.74222878	      0.65364615	     -5.41236140	     24.45802674	      0.42687310	    -22.25786938	      0.00000000	      0.00000000	     -9.01652113	     -2.00655118	     -4.22863553	     89.93988191	     -4.10501375	     22.73142771	     39.63153742	     82.07503304	      0.00000000	      0.00000000	     89.92735695	    -12.09669550	     20.60991757	     40.22395938	     84.13232366	      0.00000000	      0.00000000
